<?xml version="1.0" encoding="UTF-8"?>
<svg xmlns="http://www.w3.org/2000/svg" viewBox="0 0 408.86 177.64">
  <defs>
    <style>
      .cls-1 {
        fill: #4b0657;
      }

      .cls-2 {
        fill: #0b8e26;
      }

      .cls-3 {
        fill: none;
        stroke: #0b8e26;
        stroke-miterlimit: 10;
        stroke-width: 2px;
      }
    </style>
  </defs>
  <g id="Capa_1" data-name="Capa 1">
    <path class="cls-2" d="m81.44,138.5v.72c-.02,20.64-16.75,37.37-37.38,37.39h-6.68c-18.18.04-33.74-13.04-36.83-30.95l15.47-2.69c1.8,10.39,10.82,17.96,21.36,17.94h6.68c11.97-.02,21.67-9.72,21.68-21.69v-.72c-.03-9.03-5.63-17.1-14.07-20.3l-27.41-10.28C7.34,101.56-2.62,84.01.6,66.22c3.22-17.79,18.71-30.72,36.79-30.72h6.68c14.27-.06,27.32,8.06,33.57,20.9l-14.09,6.94c-3.62-7.44-11.19-12.16-19.47-12.13h-6.67c-10.49,0-19.48,7.49-21.35,17.82-1.87,10.32,3.91,20.5,13.73,24.18l27.41,10.28c14.55,5.52,24.2,19.44,24.25,35.01Z"/>
    <path class="cls-2" d="m123.25,50.99v47.14h58.58v15.71h-58.58v47.08h68.41v15.71h-84.12V35.28h84.12v15.71h-68.41Z"/>
    <path class="cls-1" d="m393.15,176.64V32.52h15.71v144.13h-15.71Z"/>
    <rect class="cls-1" x="389.58" y="1" width="18.89" height="18.89"/>
    <rect class="cls-3" x="362.39" y="1" width="18.89" height="18.89"/>
    <rect class="cls-1" x="335.19" y="1" width="18.89" height="18.89"/>
    <rect class="cls-3" x="309.51" y="1" width="18.89" height="18.89"/>
  </g>
  <g id="Capa_2" data-name="Capa 2">
    <polygon class="cls-2" points="206.18 176.7 232.37 32.52 293.81 136.13 353.24 35.33 380.44 177.64 359.28 176.7 345.18 87.76 294.82 172.02 241.44 86.82 227.34 176.86 206.18 176.7"/>
  </g>
</svg>